<?xml version="1.0" encoding="UTF-8" standalone="no"?><!-- Generator: Gravit.io --><svg xmlns="http://www.w3.org/2000/svg" xmlns:xlink="http://www.w3.org/1999/xlink" style="isolation:isolate" viewBox="748 380 63 18.9" width="63pt" height="18.9pt"><defs><clipPath id="_clipPath_GHSPvIVPoCROSNx1cLiKWSz8wb60OoOZ"><rect x="748" y="380" width="63" height="18.9"/></clipPath></defs><g clip-path="url(#_clipPath_GHSPvIVPoCROSNx1cLiKWSz8wb60OoOZ)"><mask id="_mask_JrxN2E2KzcnHzJhia4vW60Fd3143cyFA"><path d=" M 750.864 380 L 808.136 380 C 809.717 380 811 381.283 811 382.864 L 811 396.036 C 811 397.617 809.717 398.9 808.136 398.9 L 750.864 398.9 C 749.283 398.9 748 397.617 748 396.036 L 748 382.864 C 748 381.283 749.283 380 750.864 380 Z " fill="white" stroke="none"/></mask><path d=" M 750.864 380 L 808.136 380 C 809.717 380 811 381.283 811 382.864 L 811 396.036 C 811 397.617 809.717 398.9 808.136 398.9 L 750.864 398.9 C 749.283 398.9 748 397.617 748 396.036 L 748 382.864 C 748 381.283 749.283 380 750.864 380 Z " fill="rgb(74,0,123)"/><path d=" M 750.864 380 L 808.136 380 C 809.717 380 811 381.283 811 382.864 L 811 396.036 C 811 397.617 809.717 398.9 808.136 398.9 L 750.864 398.9 C 749.283 398.9 748 397.617 748 396.036 L 748 382.864 C 748 381.283 749.283 380 750.864 380 Z " fill="rgb(74,0,123)" mask="url(#_mask_JrxN2E2KzcnHzJhia4vW60Fd3143cyFA)" vector-effect="non-scaling-stroke" stroke-width="2" stroke="rgb(25,0,42)" stroke-linejoin="miter" stroke-linecap="square" stroke-miterlimit="3"/><g clip-path="url(#_clipPath_peX8RY83TJXx5E9GmZacY2Rc4EhJSNJE)"><text transform="matrix(1,0,0,1,753,394.111)" style="font-family:'Roboto Mono';font-weight:400;font-size:12px;font-style:normal;fill:#ffffff;stroke:none;">Details</text></g><defs><clipPath id="_clipPath_peX8RY83TJXx5E9GmZacY2Rc4EhJSNJE"><rect x="0" y="0" width="53" height="15.826" transform="matrix(1,0,0,1,753,381.537)"/></clipPath></defs></g></svg>