<?xml version="1.0" encoding="UTF-8" standalone="no"?><!-- Generator: Gravit.io --><svg xmlns="http://www.w3.org/2000/svg" xmlns:xlink="http://www.w3.org/1999/xlink" style="isolation:isolate" viewBox="748 380 63 18.9" width="63pt" height="18.9pt"><defs><clipPath id="_clipPath_jqgI5rLw8vKAP5YjXOADt16WHdiiV5QH"><rect x="748" y="380" width="63" height="18.9"/></clipPath></defs><g clip-path="url(#_clipPath_jqgI5rLw8vKAP5YjXOADt16WHdiiV5QH)"><mask id="_mask_f4fPi2Ssct1BAarMveyWPlhIgy34GGYd"><path d=" M 750.864 380 L 808.136 380 C 809.717 380 811 381.283 811 382.864 L 811 396.036 C 811 397.617 809.717 398.9 808.136 398.9 L 750.864 398.9 C 749.283 398.9 748 397.617 748 396.036 L 748 382.864 C 748 381.283 749.283 380 750.864 380 Z " fill="white" stroke="none"/></mask><path d=" M 750.864 380 L 808.136 380 C 809.717 380 811 381.283 811 382.864 L 811 396.036 C 811 397.617 809.717 398.9 808.136 398.9 L 750.864 398.9 C 749.283 398.9 748 397.617 748 396.036 L 748 382.864 C 748 381.283 749.283 380 750.864 380 Z " fill="rgb(74,0,123)"/><path d=" M 750.864 380 L 808.136 380 C 809.717 380 811 381.283 811 382.864 L 811 396.036 C 811 397.617 809.717 398.9 808.136 398.9 L 750.864 398.9 C 749.283 398.9 748 397.617 748 396.036 L 748 382.864 C 748 381.283 749.283 380 750.864 380 Z " fill="rgb(74,0,123)" mask="url(#_mask_f4fPi2Ssct1BAarMveyWPlhIgy34GGYd)" vector-effect="non-scaling-stroke" stroke-width="2" stroke="rgb(25,0,42)" stroke-linejoin="miter" stroke-linecap="square" stroke-miterlimit="3"/><path d=" M 755.192 385.36 L 755.192 393.891 L 757.167 393.891 L 757.167 393.891 Q 757.782 393.886 758.313 393.745 L 758.313 393.745 L 758.313 393.745 Q 758.843 393.604 759.265 393.341 L 759.265 393.341 L 759.265 393.341 Q 759.663 393.089 759.985 392.731 L 759.985 392.731 L 759.985 392.731 Q 760.308 392.374 760.519 391.934 L 760.519 391.934 L 760.519 391.934 Q 760.724 391.513 760.832 391.009 L 760.832 391.009 L 760.832 391.009 Q 760.94 390.505 760.94 389.942 L 760.94 389.942 L 760.94 389.315 L 760.94 389.315 Q 760.935 388.729 760.82 388.214 L 760.82 388.214 L 760.82 388.214 Q 760.706 387.698 760.489 387.264 L 760.489 387.264 L 760.489 387.264 Q 760.249 386.755 759.848 386.365 L 759.848 386.365 L 759.848 386.365 Q 759.446 385.975 758.925 385.735 L 758.925 385.735 L 758.925 385.735 Q 758.55 385.559 758.107 385.463 L 758.107 385.463 L 758.107 385.463 Q 757.665 385.366 757.167 385.36 L 757.167 385.36 L 755.192 385.36 Z  M 756.294 393.007 L 756.294 386.251 L 757.167 386.251 L 757.167 386.251 Q 757.571 386.257 757.911 386.342 L 757.911 386.342 L 757.911 386.342 Q 758.251 386.427 758.526 386.579 L 758.526 386.579 L 758.526 386.579 Q 758.913 386.784 759.18 387.115 L 759.18 387.115 L 759.18 387.115 Q 759.446 387.446 759.604 387.856 L 759.604 387.856 L 759.604 387.856 Q 759.728 388.173 759.789 388.539 L 759.789 388.539 L 759.789 388.539 Q 759.851 388.905 759.856 389.304 L 759.856 389.304 L 759.856 389.942 L 759.856 389.942 Q 759.851 390.335 759.792 390.695 L 759.792 390.695 L 759.792 390.695 Q 759.733 391.055 759.616 391.366 L 759.616 391.366 L 759.616 391.366 Q 759.481 391.747 759.25 392.054 L 759.25 392.054 L 759.25 392.054 Q 759.019 392.362 758.702 392.573 L 758.702 392.573 L 758.702 392.573 Q 758.403 392.778 758.02 392.889 L 758.02 392.889 L 758.02 392.889 Q 757.636 393.001 757.167 393.007 L 757.167 393.007 L 756.294 393.007 Z  M 765.306 394.009 L 765.306 394.009 L 765.306 394.009 Q 766.231 394.009 766.861 393.637 L 766.861 393.637 L 766.861 393.637 Q 767.491 393.264 767.808 392.784 L 767.808 392.784 L 767.146 392.268 L 767.146 392.268 Q 766.847 392.655 766.396 392.889 L 766.396 392.889 L 766.396 392.889 Q 765.944 393.124 765.364 393.124 L 765.364 393.124 L 765.364 393.124 Q 764.925 393.124 764.562 392.96 L 764.562 392.96 L 764.562 392.96 Q 764.198 392.796 763.94 392.509 L 763.94 392.509 L 763.94 392.509 Q 763.688 392.239 763.545 391.888 L 763.545 391.888 L 763.545 391.888 Q 763.401 391.536 763.36 391.073 L 763.36 391.073 L 763.36 391.032 L 767.89 391.032 L 767.89 390.546 L 767.89 390.546 Q 767.89 389.884 767.723 389.315 L 767.723 389.315 L 767.723 389.315 Q 767.556 388.747 767.216 388.325 L 767.216 388.325 L 767.216 388.325 Q 766.876 387.909 766.363 387.672 L 766.363 387.672 L 766.363 387.672 Q 765.851 387.434 765.165 387.434 L 765.165 387.434 L 765.165 387.434 Q 764.62 387.434 764.102 387.657 L 764.102 387.657 L 764.102 387.657 Q 763.583 387.88 763.179 388.296 L 763.179 388.296 L 763.179 388.296 Q 762.769 388.718 762.522 389.324 L 762.522 389.324 L 762.522 389.324 Q 762.276 389.93 762.276 390.698 L 762.276 390.698 L 762.276 390.944 L 762.276 390.944 Q 762.276 391.606 762.499 392.169 L 762.499 392.169 L 762.499 392.169 Q 762.722 392.731 763.12 393.141 L 763.12 393.141 L 763.12 393.141 Q 763.519 393.552 764.078 393.78 L 764.078 393.78 L 764.078 393.78 Q 764.638 394.009 765.306 394.009 Z  M 765.165 388.325 L 765.165 388.325 L 765.165 388.325 Q 765.581 388.325 765.883 388.477 L 765.883 388.477 L 765.883 388.477 Q 766.185 388.63 766.384 388.876 L 766.384 388.876 L 766.384 388.876 Q 766.583 389.122 766.694 389.459 L 766.694 389.459 L 766.694 389.459 Q 766.806 389.796 766.806 390.089 L 766.806 390.089 L 766.806 390.141 L 763.396 390.141 L 763.396 390.141 Q 763.46 389.702 763.621 389.365 L 763.621 389.365 L 763.621 389.365 Q 763.782 389.028 764.017 388.794 L 764.017 388.794 L 764.017 388.794 Q 764.251 388.565 764.544 388.445 L 764.544 388.445 L 764.544 388.445 Q 764.837 388.325 765.165 388.325 Z  M 772.272 387.552 L 772.272 386.016 L 771.183 386.016 L 771.183 387.552 L 769.519 387.552 L 769.519 388.389 L 771.183 388.389 L 771.183 391.835 L 771.183 391.835 Q 771.183 392.421 771.338 392.834 L 771.338 392.834 L 771.338 392.834 Q 771.493 393.247 771.763 393.505 L 771.763 393.505 L 771.763 393.505 Q 772.032 393.768 772.398 393.888 L 772.398 393.888 L 772.398 393.888 Q 772.765 394.009 773.187 394.009 L 773.187 394.009 L 773.187 394.009 Q 773.438 394.009 773.693 393.985 L 773.693 393.985 L 773.693 393.985 Q 773.948 393.962 774.177 393.915 L 774.177 393.915 L 774.177 393.915 Q 774.405 393.874 774.599 393.812 L 774.599 393.812 L 774.599 393.812 Q 774.792 393.751 774.927 393.669 L 774.927 393.669 L 774.774 392.901 L 774.774 392.901 Q 774.675 392.925 774.52 392.957 L 774.52 392.957 L 774.52 392.957 Q 774.364 392.989 774.188 393.018 L 774.188 393.018 L 774.188 393.018 Q 774.007 393.048 773.819 393.068 L 773.819 393.068 L 773.819 393.068 Q 773.632 393.089 773.456 393.089 L 773.456 393.089 L 773.456 393.089 Q 773.216 393.089 773.002 393.03 L 773.002 393.03 L 773.002 393.03 Q 772.788 392.971 772.624 392.825 L 772.624 392.825 L 772.624 392.825 Q 772.46 392.684 772.366 392.444 L 772.366 392.444 L 772.366 392.444 Q 772.272 392.204 772.272 391.835 L 772.272 391.835 L 772.272 388.389 L 774.687 388.389 L 774.687 387.552 L 772.272 387.552 Z  M 781.073 393.891 L 781.073 393.891 L 782.204 393.891 L 782.204 393.798 L 782.204 393.798 Q 782.099 393.534 782.04 393.179 L 782.04 393.179 L 782.04 393.179 Q 781.981 392.825 781.981 392.509 L 781.981 392.509 L 781.981 389.561 L 781.981 389.561 Q 781.981 389.028 781.788 388.63 L 781.788 388.63 L 781.788 388.63 Q 781.595 388.231 781.261 387.962 L 781.261 387.962 L 781.261 387.962 Q 780.921 387.698 780.458 387.566 L 780.458 387.566 L 780.458 387.566 Q 779.995 387.434 779.456 387.434 L 779.456 387.434 L 779.456 387.434 Q 778.864 387.434 778.398 387.598 L 778.398 387.598 L 778.398 387.598 Q 777.933 387.763 777.61 388.026 L 777.61 388.026 L 777.61 388.026 Q 777.282 388.296 777.109 388.63 L 777.109 388.63 L 777.109 388.63 Q 776.937 388.964 776.931 389.309 L 776.931 389.309 L 778.021 389.309 L 778.021 389.309 Q 778.021 389.11 778.117 388.926 L 778.117 388.926 L 778.117 388.926 Q 778.214 388.741 778.39 388.606 L 778.39 388.606 L 778.39 388.606 Q 778.565 388.471 778.82 388.389 L 778.82 388.389 L 778.82 388.389 Q 779.075 388.307 779.397 388.307 L 779.397 388.307 L 779.397 388.307 Q 779.743 388.307 780.021 388.395 L 780.021 388.395 L 780.021 388.395 Q 780.3 388.483 780.493 388.641 L 780.493 388.641 L 780.493 388.641 Q 780.687 388.805 780.792 389.034 L 780.792 389.034 L 780.792 389.034 Q 780.897 389.263 780.897 389.55 L 780.897 389.55 L 780.897 390.048 L 779.714 390.048 L 779.714 390.048 Q 779.052 390.048 778.516 390.177 L 778.516 390.177 L 778.516 390.177 Q 777.979 390.305 777.599 390.563 L 777.599 390.563 L 777.599 390.563 Q 777.218 390.827 777.01 391.22 L 777.01 391.22 L 777.01 391.22 Q 776.802 391.612 776.802 392.134 L 776.802 392.134 L 776.802 392.134 Q 776.802 392.532 776.957 392.875 L 776.957 392.875 L 776.957 392.875 Q 777.112 393.218 777.399 393.464 L 777.399 393.464 L 777.399 393.464 Q 777.681 393.716 778.088 393.862 L 778.088 393.862 L 778.088 393.862 Q 778.495 394.009 778.999 394.009 L 778.999 394.009 L 778.999 394.009 Q 779.31 394.009 779.585 393.944 L 779.585 393.944 L 779.585 393.944 Q 779.86 393.88 780.106 393.768 L 780.106 393.768 L 780.106 393.768 Q 780.347 393.657 780.549 393.511 L 780.549 393.511 L 780.549 393.511 Q 780.751 393.364 780.915 393.2 L 780.915 393.2 L 780.915 393.2 Q 780.933 393.399 780.971 393.584 L 780.971 393.584 L 780.971 393.584 Q 781.009 393.768 781.073 393.891 Z  M 779.157 393.065 L 779.157 393.065 L 779.157 393.065 Q 778.841 393.065 778.601 392.983 L 778.601 392.983 L 778.601 392.983 Q 778.36 392.901 778.202 392.755 L 778.202 392.755 L 778.202 392.755 Q 778.044 392.614 777.965 392.415 L 777.965 392.415 L 777.965 392.415 Q 777.886 392.216 777.886 391.981 L 777.886 391.981 L 777.886 391.981 Q 777.886 391.735 777.977 391.542 L 777.977 391.542 L 777.977 391.542 Q 778.067 391.348 778.243 391.208 L 778.243 391.208 L 778.243 391.208 Q 778.489 391.009 778.908 390.912 L 778.908 390.912 L 778.908 390.912 Q 779.327 390.815 779.89 390.815 L 779.89 390.815 L 780.897 390.815 L 780.897 392.098 L 780.897 392.098 Q 780.804 392.286 780.64 392.459 L 780.64 392.459 L 780.64 392.459 Q 780.476 392.632 780.253 392.766 L 780.253 392.766 L 780.253 392.766 Q 780.024 392.901 779.749 392.983 L 779.749 392.983 L 779.749 392.983 Q 779.474 393.065 779.157 393.065 Z  M 787.519 387.552 L 784.278 387.552 L 784.278 388.495 L 786.435 388.495 L 786.435 392.954 L 784.278 392.954 L 784.278 393.891 L 789.587 393.891 L 789.587 392.954 L 787.519 392.954 L 787.519 387.552 Z  M 786.294 385.888 L 786.294 385.888 L 786.294 385.888 Q 786.294 386.151 786.455 386.327 L 786.455 386.327 L 786.455 386.327 Q 786.616 386.503 786.944 386.503 L 786.944 386.503 L 786.944 386.503 Q 787.267 386.503 787.431 386.327 L 787.431 386.327 L 787.431 386.327 Q 787.595 386.151 787.595 385.888 L 787.595 385.888 L 787.595 385.888 Q 787.595 385.741 787.548 385.618 L 787.548 385.618 L 787.548 385.618 Q 787.501 385.495 787.407 385.413 L 787.407 385.413 L 787.407 385.413 Q 787.331 385.337 787.214 385.293 L 787.214 385.293 L 787.214 385.293 Q 787.097 385.249 786.944 385.249 L 786.944 385.249 L 786.944 385.249 Q 786.792 385.249 786.672 385.293 L 786.672 385.293 L 786.672 385.293 Q 786.552 385.337 786.476 385.413 L 786.476 385.413 L 786.476 385.413 Q 786.382 385.501 786.338 385.624 L 786.338 385.624 L 786.338 385.624 Q 786.294 385.747 786.294 385.888 Z  M 794.72 384.891 L 791.479 384.891 L 791.479 385.835 L 793.636 385.835 L 793.636 392.954 L 791.479 392.954 L 791.479 393.891 L 796.788 393.891 L 796.788 392.954 L 794.72 392.954 L 794.72 384.891 Z  M 802.724 392.21 L 802.724 392.21 L 802.724 392.21 Q 802.724 392.362 802.665 392.497 L 802.665 392.497 L 802.665 392.497 Q 802.606 392.632 802.495 392.743 L 802.495 392.743 L 802.495 392.743 Q 802.313 392.925 801.991 393.027 L 801.991 393.027 L 801.991 393.027 Q 801.669 393.13 801.235 393.13 L 801.235 393.13 L 801.235 393.13 Q 800.96 393.13 800.679 393.071 L 800.679 393.071 L 800.679 393.071 Q 800.397 393.013 800.169 392.872 L 800.169 392.872 L 800.169 392.872 Q 799.935 392.731 799.779 392.503 L 799.779 392.503 L 799.779 392.503 Q 799.624 392.274 799.601 391.94 L 799.601 391.94 L 798.517 391.94 L 798.517 391.94 Q 798.517 392.345 798.701 392.72 L 798.701 392.72 L 798.701 392.72 Q 798.886 393.095 799.237 393.376 L 799.237 393.376 L 799.237 393.376 Q 799.583 393.663 800.087 393.836 L 800.087 393.836 L 800.087 393.836 Q 800.591 394.009 801.235 394.009 L 801.235 394.009 L 801.235 394.009 Q 801.798 394.009 802.272 393.874 L 802.272 393.874 L 802.272 393.874 Q 802.747 393.739 803.087 393.493 L 803.087 393.493 L 803.087 393.493 Q 803.427 393.247 803.617 392.901 L 803.617 392.901 L 803.617 392.901 Q 803.808 392.555 803.808 392.134 L 803.808 392.134 L 803.808 392.134 Q 803.808 391.741 803.641 391.442 L 803.641 391.442 L 803.641 391.442 Q 803.474 391.143 803.157 390.915 L 803.157 390.915 L 803.157 390.915 Q 802.841 390.692 802.378 390.531 L 802.378 390.531 L 802.378 390.531 Q 801.915 390.37 801.329 390.247 L 801.329 390.247 L 801.329 390.247 Q 800.884 390.159 800.594 390.065 L 800.594 390.065 L 800.594 390.065 Q 800.304 389.971 800.134 389.854 L 800.134 389.854 L 800.134 389.854 Q 799.958 389.737 799.888 389.591 L 799.888 389.591 L 799.888 389.591 Q 799.817 389.444 799.817 389.257 L 799.817 389.257 L 799.817 389.257 Q 799.817 389.075 799.905 388.905 L 799.905 388.905 L 799.905 388.905 Q 799.993 388.735 800.169 388.606 L 800.169 388.606 L 800.169 388.606 Q 800.339 388.477 800.6 388.401 L 800.6 388.401 L 800.6 388.401 Q 800.86 388.325 801.206 388.325 L 801.206 388.325 L 801.206 388.325 Q 801.54 388.325 801.807 388.419 L 801.807 388.419 L 801.807 388.419 Q 802.073 388.513 802.261 388.665 L 802.261 388.665 L 802.261 388.665 Q 802.448 388.817 802.554 389.013 L 802.554 389.013 L 802.554 389.013 Q 802.659 389.21 802.659 389.415 L 802.659 389.415 L 803.743 389.415 L 803.743 389.415 Q 803.743 388.999 803.564 388.638 L 803.564 388.638 L 803.564 388.638 Q 803.386 388.278 803.058 388.009 L 803.058 388.009 L 803.058 388.009 Q 802.729 387.739 802.261 387.587 L 802.261 387.587 L 802.261 387.587 Q 801.792 387.434 801.206 387.434 L 801.206 387.434 L 801.206 387.434 Q 800.661 387.434 800.207 387.581 L 800.207 387.581 L 800.207 387.581 Q 799.753 387.727 799.425 387.979 L 799.425 387.979 L 799.425 387.979 Q 799.097 388.231 798.915 388.568 L 798.915 388.568 L 798.915 388.568 Q 798.733 388.905 798.733 389.292 L 798.733 389.292 L 798.733 389.292 Q 798.733 389.684 798.909 389.98 L 798.909 389.98 L 798.909 389.98 Q 799.085 390.276 799.407 390.493 L 799.407 390.493 L 799.407 390.493 Q 799.724 390.716 800.172 390.874 L 800.172 390.874 L 800.172 390.874 Q 800.62 391.032 801.165 391.143 L 801.165 391.143 L 801.165 391.143 Q 801.61 391.231 801.909 391.34 L 801.909 391.34 L 801.909 391.34 Q 802.208 391.448 802.39 391.577 L 802.39 391.577 L 802.39 391.577 Q 802.571 391.706 802.647 391.861 L 802.647 391.861 L 802.647 391.861 Q 802.724 392.016 802.724 392.21 Z " fill="rgb(255,255,255)"/></g></svg>