<svg xmlns="http://www.w3.org/2000/svg" xmlns:xlink="http://www.w3.org/1999/xlink" viewBox="0 0 621.06 143"><defs><style>.cls-1{fill:#fff;}.cls-2{fill:url(#linear-gradient);}</style><linearGradient id="linear-gradient" x1="621.06" y1="71.5" x2="0" y2="71.5" gradientUnits="userSpaceOnUse"><stop offset="0" stop-color="#8150a0"/><stop offset="1" stop-color="#7f3393"/></linearGradient></defs><g id="Layer_2" data-name="Layer 2"><g id="Layer_1-2" data-name="Layer 1"><path class="cls-1" d="M190.38,27.25h16.36v76h38.94V117.3h-55.3Z"/><path class="cls-1" d="M308.72,51.09c18.51,0,28.66,13.57,28.66,30.69a50.15,50.15,0,0,1-.51,6.22H292.36c1,11.29,9.64,17.12,19.4,17.12,6.6,0,13.32-2.92,18.52-7.1l6.34,11.54c-6.59,5.83-16.74,9.26-26,9.26-21.43,0-34.88-15.47-34.88-33.87C275.74,65,289.31,51.09,308.72,51.09ZM321.27,77c-.12-8.62-5.7-13.69-12.93-13.69-8.25,0-14.08,5.45-15.6,13.69Z"/><path class="cls-1" d="M390.15,84.57l-20.8-32h18.26l10,17.63c.89,1.65,2,4.06,2,4.06h.25s1.27-2.41,2.16-4.06l10-17.63h18.26l-20.8,32L431,117.3H413L401.82,98.53c-.89-1.4-1.91-3.43-1.91-3.43h-.25a31.87,31.87,0,0,1-1.77,3.43L386.72,117.3H368.84Z"/><path class="cls-1" d="M468.66,28.51H475v9.26h-6.34Zm.51,25.37h5.33V117.3h-5.33Z"/><path class="cls-1" d="M546.28,33.59h-33.1V28.51h71.66v5.08h-33.1V117.3h-5.46Z"/><path class="cls-2" d="M164.1,0H0L41.28,71.5h0L0,143H621.06V0Zm-119,71.5L82.05,7.57,119,71.5,82.05,135.43ZM83.46,3.34h74.85L120.89,68.16Zm-77.67,0H80.63L43.21,68.16Zm37.42,71.5,37.42,64.82H5.79Zm115,64.82H83.46l37.43-64.82,37.42,64.82Zm459.52,0H162.17L122.82,71.5h0L162.2,3.28h19.39l436.13.06Z"/></g></g></svg>