<?xml version="1.0" encoding="UTF-8" standalone="no"?><!-- Generator: Gravit.io --><svg xmlns="http://www.w3.org/2000/svg" xmlns:xlink="http://www.w3.org/1999/xlink" style="isolation:isolate" viewBox="748 380 63 18.9" width="63pt" height="18.9pt"><defs><clipPath id="_clipPath_Rd56DesBscBIJJXYPo3AT2hLmiHN9Qmx"><rect x="748" y="380" width="63" height="18.9"/></clipPath></defs><g clip-path="url(#_clipPath_Rd56DesBscBIJJXYPo3AT2hLmiHN9Qmx)"><mask id="_mask_dtVVQ0hwFEzQepnBJSZ5Qw6vL2AdG2R6"><path d=" M 750.864 380 L 808.136 380 C 809.717 380 811 381.283 811 382.864 L 811 396.036 C 811 397.617 809.717 398.9 808.136 398.9 L 750.864 398.9 C 749.283 398.9 748 397.617 748 396.036 L 748 382.864 C 748 381.283 749.283 380 750.864 380 Z " fill="white" stroke="none"/></mask><path d=" M 750.864 380 L 808.136 380 C 809.717 380 811 381.283 811 382.864 L 811 396.036 C 811 397.617 809.717 398.9 808.136 398.9 L 750.864 398.9 C 749.283 398.9 748 397.617 748 396.036 L 748 382.864 C 748 381.283 749.283 380 750.864 380 Z " fill="rgb(74,0,123)"/><path d=" M 750.864 380 L 808.136 380 C 809.717 380 811 381.283 811 382.864 L 811 396.036 C 811 397.617 809.717 398.9 808.136 398.9 L 750.864 398.9 C 749.283 398.9 748 397.617 748 396.036 L 748 382.864 C 748 381.283 749.283 380 750.864 380 Z " fill="rgb(74,0,123)" mask="url(#_mask_dtVVQ0hwFEzQepnBJSZ5Qw6vL2AdG2R6)" vector-effect="non-scaling-stroke" stroke-width="2" stroke="rgb(25,0,42)" stroke-linejoin="miter" stroke-linecap="square" stroke-miterlimit="3"/><path d=" M 760.836 392.648 L 760.048 392.648 L 760.048 386.234 L 762.027 386.234 L 762.027 386.234 Q 762.586 386.234 763.003 386.399 L 763.003 386.399 L 763.003 386.399 Q 763.42 386.563 763.649 386.843 L 763.649 386.843 L 763.649 386.843 Q 763.878 387.122 763.988 387.452 L 763.988 387.452 L 763.988 387.452 Q 764.098 387.782 764.098 388.158 L 764.098 388.158 L 764.098 388.158 Q 764.098 388.919 763.58 389.496 L 763.58 389.496 L 763.58 389.496 Q 763.063 390.073 762.027 390.073 L 762.027 390.073 L 760.836 390.073 L 760.836 392.648 Z  M 760.836 386.957 L 760.836 389.34 L 762.082 389.34 L 762.082 389.34 Q 762.715 389.34 763.017 388.992 L 763.017 388.992 L 763.017 388.992 Q 763.319 388.644 763.319 388.158 L 763.319 388.158 L 763.319 388.158 Q 763.319 387.681 763.031 387.319 L 763.031 387.319 L 763.031 387.319 Q 762.742 386.957 762.082 386.957 L 762.082 386.957 L 760.836 386.957 Z  M 768.79 387.856 L 768.79 387.856 L 768.79 387.856 Q 769.441 387.856 769.816 388.075 L 769.816 388.075 L 769.816 389.697 L 769.037 389.697 L 769.037 388.634 L 769.037 388.634 Q 768.946 388.625 768.753 388.625 L 768.753 388.625 L 768.753 388.625 Q 768.039 388.625 767.548 388.973 L 767.548 388.973 L 767.548 388.973 Q 767.058 389.322 767.058 389.954 L 767.058 389.954 L 767.058 391.952 L 768.423 391.952 L 768.423 392.648 L 765.28 392.648 L 765.28 391.952 L 766.261 391.952 L 766.261 388.662 L 765.28 388.662 L 765.28 387.965 L 767.003 387.965 L 767.003 388.781 L 767.003 388.781 Q 767.241 388.36 767.75 388.108 L 767.75 388.108 L 767.75 388.108 Q 768.259 387.856 768.79 387.856 Z  M 774.875 392.098 L 774.875 392.098 L 774.875 392.098 Q 774.279 392.758 773.28 392.758 L 773.28 392.758 L 773.28 392.758 Q 772.281 392.758 771.686 392.107 L 771.686 392.107 L 771.686 392.107 Q 771.09 391.457 771.09 390.311 L 771.09 390.311 L 771.09 390.311 Q 771.09 389.175 771.686 388.515 L 771.686 388.515 L 771.686 388.515 Q 772.281 387.856 773.28 387.856 L 773.28 387.856 L 773.28 387.856 Q 774.288 387.856 774.879 388.506 L 774.879 388.506 L 774.879 388.506 Q 775.47 389.157 775.47 390.302 L 775.47 390.302 L 775.47 390.302 Q 775.47 391.439 774.875 392.098 Z  M 773.28 392.034 L 773.28 392.034 L 773.28 392.034 Q 773.94 392.034 774.307 391.571 L 774.307 391.571 L 774.307 391.571 Q 774.673 391.109 774.673 390.302 L 774.673 390.302 L 774.673 390.302 Q 774.673 389.487 774.316 389.028 L 774.316 389.028 L 774.316 389.028 Q 773.958 388.57 773.28 388.57 L 773.28 388.57 L 773.28 388.57 Q 772.602 388.57 772.245 389.024 L 772.245 389.024 L 772.245 389.024 Q 771.887 389.477 771.887 390.311 L 771.887 390.311 L 771.887 390.311 Q 771.887 391.118 772.249 391.576 L 772.249 391.576 L 772.249 391.576 Q 772.611 392.034 773.28 392.034 Z  M 779.786 386.829 L 779.786 386.829 L 779.786 386.829 Q 779.383 386.829 779.232 386.98 L 779.232 386.98 L 779.232 386.98 Q 779.081 387.132 779.081 387.416 L 779.081 387.416 L 779.081 387.965 L 780.437 387.965 L 780.437 388.662 L 779.081 388.662 L 779.081 391.952 L 780.327 391.952 L 780.327 392.648 L 777.312 392.648 L 777.312 391.952 L 778.302 391.952 L 778.302 388.662 L 777.312 388.662 L 777.312 387.965 L 778.302 387.965 L 778.302 387.278 L 778.302 387.278 Q 778.302 386.655 778.687 386.389 L 778.687 386.389 L 778.687 386.389 Q 779.072 386.124 779.667 386.124 L 779.667 386.124 L 779.667 386.124 Q 780.226 386.124 780.694 386.344 L 780.694 386.344 L 780.694 387.022 L 780.694 387.022 Q 780.281 386.829 779.786 386.829 Z  M 784.68 387.104 L 784.68 387.104 L 784.68 387.104 Q 784.478 387.104 784.336 386.962 L 784.336 386.962 L 784.336 386.962 Q 784.194 386.82 784.194 386.618 L 784.194 386.618 L 784.194 386.618 Q 784.194 386.408 784.336 386.261 L 784.336 386.261 L 784.336 386.261 Q 784.478 386.114 784.68 386.114 L 784.68 386.114 L 784.68 386.114 Q 784.891 386.114 785.033 386.261 L 785.033 386.261 L 785.033 386.261 Q 785.175 386.408 785.175 386.618 L 785.175 386.618 L 785.175 386.618 Q 785.175 386.829 785.033 386.967 L 785.033 386.967 L 785.033 386.967 Q 784.891 387.104 784.68 387.104 Z  M 785.074 387.965 L 785.074 391.952 L 786.366 391.952 L 786.366 392.648 L 783.003 392.648 L 783.003 391.952 L 784.295 391.952 L 784.295 388.662 L 783.003 388.662 L 783.003 387.965 L 785.074 387.965 Z  M 790.599 386.032 L 790.599 391.952 L 791.919 391.952 L 791.919 392.648 L 788.51 392.648 L 788.51 391.952 L 789.821 391.952 L 789.821 386.728 L 788.693 386.728 L 788.345 386.032 L 790.599 386.032 Z  M 797.912 390.101 L 797.912 390.101 L 797.912 390.101 Q 797.912 390.403 797.885 390.614 L 797.885 390.614 L 794.613 390.614 L 794.613 390.614 Q 794.705 391.292 795.058 391.672 L 795.058 391.672 L 795.058 391.672 Q 795.41 392.052 795.979 392.052 L 795.979 392.052 L 795.979 392.052 Q 796.574 392.052 797.069 391.649 L 797.069 391.649 L 797.509 392.162 L 797.509 392.162 Q 796.849 392.758 795.951 392.758 L 795.951 392.758 L 795.951 392.758 Q 794.971 392.758 794.389 392.062 L 794.389 392.062 L 794.389 392.062 Q 793.807 391.365 793.807 390.302 L 793.807 390.302 L 793.807 390.302 Q 793.807 389.157 794.389 388.506 L 794.389 388.506 L 794.389 388.506 Q 794.971 387.856 795.951 387.856 L 795.951 387.856 L 795.951 387.856 Q 796.812 387.856 797.362 388.424 L 797.362 388.424 L 797.362 388.424 Q 797.912 388.992 797.912 390.101 Z  M 794.595 389.936 L 794.595 389.936 L 797.133 389.936 L 797.133 389.936 Q 797.115 389.193 796.767 388.873 L 796.767 388.873 L 796.767 388.873 Q 796.418 388.552 795.951 388.552 L 795.951 388.552 L 795.951 388.552 Q 795.328 388.552 794.984 388.919 L 794.984 388.919 L 794.984 388.919 Q 794.641 389.285 794.595 389.936 Z " fill="rgb(255,255,255)"/></g></svg>