<?xml version="1.0" encoding="UTF-8" standalone="no"?><!-- Generator: Gravit.io --><svg xmlns="http://www.w3.org/2000/svg" xmlns:xlink="http://www.w3.org/1999/xlink" style="isolation:isolate" viewBox="748 380 110 33" width="110pt" height="33pt"><defs><clipPath id="_clipPath_eYdui8vcviJl08s4Fe3HhJlv47EWEwdY"><rect x="748" y="380" width="110" height="33"/></clipPath></defs><g clip-path="url(#_clipPath_eYdui8vcviJl08s4Fe3HhJlv47EWEwdY)"><mask id="_mask_NCulLhbkrkjyOe9pvBnYD8bMvaE2VogQ"><path d=" M 753 380 L 853 380 C 855.76 380 858 382.24 858 385 L 858 408 C 858 410.76 855.76 413 853 413 L 753 413 C 750.24 413 748 410.76 748 408 L 748 385 C 748 382.24 750.24 380 753 380 Z " fill="white" stroke="none"/></mask><path d=" M 753 380 L 853 380 C 855.76 380 858 382.24 858 385 L 858 408 C 858 410.76 855.76 413 853 413 L 753 413 C 750.24 413 748 410.76 748 408 L 748 385 C 748 382.24 750.24 380 753 380 Z " fill="rgb(74,0,123)"/><path d=" M 753 380 L 853 380 C 855.76 380 858 382.24 858 385 L 858 408 C 858 410.76 855.76 413 853 413 L 753 413 C 750.24 413 748 410.76 748 408 L 748 385 C 748 382.24 750.24 380 753 380 Z " fill="rgb(74,0,123)" mask="url(#_mask_NCulLhbkrkjyOe9pvBnYD8bMvaE2VogQ)" vector-effect="non-scaling-stroke" stroke-width="2" stroke="rgb(25,0,42)" stroke-linejoin="miter" stroke-linecap="square" stroke-miterlimit="3"/><path d=" M 770.412 402.084 L 769.036 402.084 L 769.036 390.884 L 772.492 390.884 L 772.492 390.884 Q 773.468 390.884 774.196 391.172 L 774.196 391.172 L 774.196 391.172 Q 774.924 391.46 775.324 391.948 L 775.324 391.948 L 775.324 391.948 Q 775.724 392.436 775.916 393.012 L 775.916 393.012 L 775.916 393.012 Q 776.108 393.588 776.108 394.244 L 776.108 394.244 L 776.108 394.244 Q 776.108 395.572 775.204 396.58 L 775.204 396.58 L 775.204 396.58 Q 774.3 397.588 772.492 397.588 L 772.492 397.588 L 770.412 397.588 L 770.412 402.084 L 770.412 402.084 Z  M 770.412 392.148 L 770.412 396.308 L 772.588 396.308 L 772.588 396.308 Q 773.692 396.308 774.22 395.7 L 774.22 395.7 L 774.22 395.7 Q 774.748 395.092 774.748 394.244 L 774.748 394.244 L 774.748 394.244 Q 774.748 393.412 774.244 392.78 L 774.244 392.78 L 774.244 392.78 Q 773.74 392.148 772.588 392.148 L 772.588 392.148 L 770.412 392.148 L 770.412 392.148 Z  M 784.3 393.716 L 784.3 393.716 L 784.3 393.716 Q 785.436 393.716 786.092 394.1 L 786.092 394.1 L 786.092 396.932 L 784.732 396.932 L 784.732 395.076 L 784.732 395.076 Q 784.572 395.06 784.236 395.06 L 784.236 395.06 L 784.236 395.06 Q 782.988 395.06 782.132 395.668 L 782.132 395.668 L 782.132 395.668 Q 781.276 396.276 781.276 397.38 L 781.276 397.38 L 781.276 400.868 L 783.66 400.868 L 783.66 402.084 L 778.172 402.084 L 778.172 400.868 L 779.884 400.868 L 779.884 395.124 L 778.172 395.124 L 778.172 393.908 L 781.18 393.908 L 781.18 395.332 L 781.18 395.332 Q 781.596 394.596 782.484 394.156 L 782.484 394.156 L 782.484 394.156 Q 783.372 393.716 784.3 393.716 Z  M 794.924 401.124 L 794.924 401.124 L 794.924 401.124 Q 793.884 402.276 792.14 402.276 L 792.14 402.276 L 792.14 402.276 Q 790.396 402.276 789.356 401.14 L 789.356 401.14 L 789.356 401.14 Q 788.316 400.004 788.316 398.004 L 788.316 398.004 L 788.316 398.004 Q 788.316 396.02 789.356 394.868 L 789.356 394.868 L 789.356 394.868 Q 790.396 393.716 792.14 393.716 L 792.14 393.716 L 792.14 393.716 Q 793.9 393.716 794.932 394.852 L 794.932 394.852 L 794.932 394.852 Q 795.964 395.988 795.964 397.988 L 795.964 397.988 L 795.964 397.988 Q 795.964 399.972 794.924 401.124 Z  M 792.14 401.012 L 792.14 401.012 L 792.14 401.012 Q 793.292 401.012 793.932 400.204 L 793.932 400.204 L 793.932 400.204 Q 794.572 399.396 794.572 397.988 L 794.572 397.988 L 794.572 397.988 Q 794.572 396.564 793.948 395.764 L 793.948 395.764 L 793.948 395.764 Q 793.324 394.964 792.14 394.964 L 792.14 394.964 L 792.14 394.964 Q 790.956 394.964 790.332 395.756 L 790.332 395.756 L 790.332 395.756 Q 789.708 396.548 789.708 398.004 L 789.708 398.004 L 789.708 398.004 Q 789.708 399.412 790.34 400.212 L 790.34 400.212 L 790.34 400.212 Q 790.972 401.012 792.14 401.012 Z  M 803.5 391.924 L 803.5 391.924 L 803.5 391.924 Q 802.796 391.924 802.532 392.188 L 802.532 392.188 L 802.532 392.188 Q 802.268 392.452 802.268 392.948 L 802.268 392.948 L 802.268 393.908 L 804.636 393.908 L 804.636 395.124 L 802.268 395.124 L 802.268 400.868 L 804.444 400.868 L 804.444 402.084 L 799.18 402.084 L 799.18 400.868 L 800.908 400.868 L 800.908 395.124 L 799.18 395.124 L 799.18 393.908 L 800.908 393.908 L 800.908 392.708 L 800.908 392.708 Q 800.908 391.62 801.58 391.156 L 801.58 391.156 L 801.58 391.156 Q 802.252 390.692 803.292 390.692 L 803.292 390.692 L 803.292 390.692 Q 804.268 390.692 805.084 391.076 L 805.084 391.076 L 805.084 392.26 L 805.084 392.26 Q 804.364 391.924 803.5 391.924 Z  M 812.044 392.404 L 812.044 392.404 L 812.044 392.404 Q 811.692 392.404 811.444 392.156 L 811.444 392.156 L 811.444 392.156 Q 811.196 391.908 811.196 391.556 L 811.196 391.556 L 811.196 391.556 Q 811.196 391.188 811.444 390.932 L 811.444 390.932 L 811.444 390.932 Q 811.692 390.676 812.044 390.676 L 812.044 390.676 L 812.044 390.676 Q 812.412 390.676 812.66 390.932 L 812.66 390.932 L 812.66 390.932 Q 812.908 391.188 812.908 391.556 L 812.908 391.556 L 812.908 391.556 Q 812.908 391.924 812.66 392.164 L 812.66 392.164 L 812.66 392.164 Q 812.412 392.404 812.044 392.404 Z  M 812.732 393.908 L 812.732 400.868 L 814.988 400.868 L 814.988 402.084 L 809.116 402.084 L 809.116 400.868 L 811.372 400.868 L 811.372 395.124 L 809.116 395.124 L 809.116 393.908 L 812.732 393.908 L 812.732 393.908 Z  M 822.38 390.532 L 822.38 400.868 L 824.684 400.868 L 824.684 402.084 L 818.732 402.084 L 818.732 400.868 L 821.02 400.868 L 821.02 391.748 L 819.052 391.748 L 818.444 390.532 L 822.38 390.532 L 822.38 390.532 Z  M 835.148 397.636 L 835.148 397.636 L 835.148 397.636 Q 835.148 398.164 835.1 398.532 L 835.1 398.532 L 829.388 398.532 L 829.388 398.532 Q 829.548 399.716 830.164 400.38 L 830.164 400.38 L 830.164 400.38 Q 830.78 401.044 831.772 401.044 L 831.772 401.044 L 831.772 401.044 Q 832.812 401.044 833.676 400.34 L 833.676 400.34 L 834.444 401.236 L 834.444 401.236 Q 833.292 402.276 831.724 402.276 L 831.724 402.276 L 831.724 402.276 Q 830.012 402.276 828.996 401.06 L 828.996 401.06 L 828.996 401.06 Q 827.98 399.844 827.98 397.988 L 827.98 397.988 L 827.98 397.988 Q 827.98 395.988 828.996 394.852 L 828.996 394.852 L 828.996 394.852 Q 830.012 393.716 831.724 393.716 L 831.724 393.716 L 831.724 393.716 Q 833.228 393.716 834.188 394.708 L 834.188 394.708 L 834.188 394.708 Q 835.148 395.7 835.148 397.636 Z  M 829.356 397.348 L 829.356 397.348 L 833.788 397.348 L 833.788 397.348 Q 833.756 396.052 833.148 395.492 L 833.148 395.492 L 833.148 395.492 Q 832.54 394.932 831.724 394.932 L 831.724 394.932 L 831.724 394.932 Q 830.636 394.932 830.036 395.572 L 830.036 395.572 L 830.036 395.572 Q 829.436 396.212 829.356 397.348 Z " fill="rgb(255,255,255)"/></g></svg>