<?xml version="1.0" encoding="UTF-8" standalone="no"?><!-- Generator: Gravit.io --><svg xmlns="http://www.w3.org/2000/svg" xmlns:xlink="http://www.w3.org/1999/xlink" style="isolation:isolate" viewBox="748 380 110 33" width="110pt" height="33pt"><defs><clipPath id="_clipPath_aTyvLGBQ9RRgTiELiTiYoW7cjPpUFUN1"><rect x="748" y="380" width="110" height="33"/></clipPath></defs><g clip-path="url(#_clipPath_aTyvLGBQ9RRgTiELiTiYoW7cjPpUFUN1)"><path d="M 753 380 L 853 380 C 855.76 380 858 382.24 858 385 L 858 408 C 858 410.76 855.76 413 853 413 L 753 413 C 750.24 413 748 410.76 748 408 L 748 385 C 748 382.24 750.24 380 753 380 Z" style="stroke:none;fill:#4A007B;stroke-miterlimit:10;"/><path d="M 753 380 L 853 380 C 855.76 380 858 382.24 858 385 L 858 408 C 858 410.76 855.76 413 853 413 L 753 413 C 750.24 413 748 410.76 748 408 L 748 385 C 748 382.24 750.24 380 753 380 Z" style="fill:none;stroke:#000000;stroke-width:2;stroke-linecap:square;stroke-miterlimit:2;"/><g clip-path="url(#_clipPath_mWIZNdfWbedDGMXWj9xEBz0D2ZnvqdB1)"><text transform="matrix(1,0,0,1,767.5,402.084)" style="font-family:'Overpass Mono';font-weight:400;font-size:16px;font-style:normal;fill:#ffffff;stroke:none;">Profile</text></g><defs><clipPath id="_clipPath_mWIZNdfWbedDGMXWj9xEBz0D2ZnvqdB1"><rect x="0" y="0" width="71" height="20.256" transform="matrix(1,0,0,1,767.5,386.372)"/></clipPath></defs></g></svg>